<svg width="15" height="13" viewBox="0 0 15 13" fill="none" xmlns="http://www.w3.org/2000/svg">
<path fillRule="evenodd" clipRule="evenodd" d="M0.993135 7.37367C1.61397 9.14144 2.91162 10.5902 4.60061 11.4012C6.28961 12.2122 8.23161 12.319 9.99938 11.6982C11.7672 11.0774 13.2159 9.77973 14.0269 8.09073C14.8379 6.40174 14.9448 4.45974 14.3239 2.69197L14.3226 2.68816C14.0114 1.82187 13.5358 1.02388 12.9218 0.338076C12.8591 0.26798 12.7781 0.216789 12.6879 0.190279C12.5977 0.163768 12.5018 0.162992 12.4112 0.188037C12.3206 0.213082 12.2387 0.262954 12.1749 0.332025C12.1111 0.401097 12.0679 0.486621 12.0501 0.578953C11.8342 1.69659 11.3312 2.73881 10.5906 3.60318C9.84992 4.46755 8.89709 5.12431 7.82573 5.50892C6.7527 5.88048 5.60159 5.96714 4.48503 5.76042C3.36846 5.5537 2.32467 5.06067 1.45579 4.32957C1.38405 4.26905 1.29684 4.22974 1.20398 4.21605C1.11112 4.20237 1.01628 4.21486 0.930131 4.25212C0.843979 4.28937 0.769925 4.34992 0.716295 4.42696C0.662665 4.50399 0.631584 4.59446 0.626546 4.68818C0.576376 5.5965 0.70012 6.50605 0.991129 7.36795L0.993135 7.37367Z" fill="#3184FF"/>
</svg>
