<svg width="24" height="24" viewBox="0 0 24 24" fill="none" xmlns="http://www.w3.org/2000/svg">
<path fill-rule="evenodd" clip-rule="evenodd" d="M6 0C4.4087 0 2.88258 0.632141 1.75736 1.75736C0.632141 2.88258 0 4.4087 0 6L0 18C0 19.5913 0.632141 21.1174 1.75736 22.2426C2.88258 23.3679 4.4087 24 6 24H18C19.5913 24 21.1174 23.3679 22.2426 22.2426C23.3679 21.1174 24 19.5913 24 18V6C24 4.4087 23.3679 2.88258 22.2426 1.75736C21.1174 0.632141 19.5913 0 18 0L6 0ZM18.0051 8.94686C18.2186 8.6802 18.3174 8.33967 18.2798 8.00017C18.2422 7.66068 18.0712 7.35003 17.8046 7.13657C17.5379 6.92311 17.1974 6.82432 16.8579 6.86193C16.5184 6.89955 16.2077 7.07049 15.9943 7.33714L9.91886 14.9383L7.48629 13.1143C7.35121 13.013 7.19751 12.9393 7.03395 12.8974C6.87039 12.8555 6.70017 12.8462 6.53303 12.8701C6.36588 12.8939 6.20508 12.9505 6.05979 13.0365C5.91451 13.1226 5.78759 13.2364 5.68629 13.3714C5.58498 13.5065 5.51127 13.6602 5.46937 13.8238C5.42746 13.9873 5.41819 14.1575 5.44206 14.3247C5.46594 14.4918 5.52251 14.6526 5.60853 14.7979C5.69456 14.9432 5.80835 15.0701 5.94343 15.1714L9.372 17.7429C9.63917 17.9436 9.97399 18.0324 10.3055 17.9904C10.637 17.9485 10.9392 17.7792 11.148 17.5183L18.0051 8.94686Z" fill="#274574"/>
</svg>
