<svg width="24" height="24" viewBox="0 0 24 24" fill="none" xmlns="http://www.w3.org/2000/svg">
<path fill-rule="evenodd" clip-rule="evenodd" d="M0 2.49771C0 1.11771 1.11771 0 2.49771 0H21.5023C22.8823 0 24 1.11771 24 2.49771V15.5023C24 16.8823 22.8823 18 21.5023 18H14.6006L15.5177 20.5629H17.1429C17.4838 20.5629 17.8109 20.6983 18.052 20.9394C18.2931 21.1806 18.4286 21.5076 18.4286 21.8486C18.4286 22.1896 18.2931 22.5166 18.052 22.7577C17.8109 22.9988 17.4838 23.1343 17.1429 23.1343H6.85714C6.51615 23.1343 6.18912 22.9988 5.94801 22.7577C5.70689 22.5166 5.57143 22.1896 5.57143 21.8486C5.57143 21.5076 5.70689 21.1806 5.94801 20.9394C6.18912 20.6983 6.51615 20.5629 6.85714 20.5629H8.48229L9.39943 18H2.49771C1.83528 18 1.19998 17.7368 0.731564 17.2684C0.263151 16.8 0 16.1647 0 15.5023L0 2.49771ZM9.48 5.51486C9.59948 5.63426 9.69426 5.77603 9.75892 5.93207C9.82359 6.08812 9.85687 6.25537 9.85687 6.42429C9.85687 6.5932 9.82359 6.76045 9.75892 6.9165C9.69426 7.07254 9.59948 7.21431 9.48 7.33371L7.81714 8.99657L9.48 10.6594C9.70711 10.9032 9.83075 11.2255 9.82487 11.5586C9.81899 11.8917 9.68406 12.2095 9.44849 12.4451C9.21293 12.6806 8.89513 12.8156 8.56204 12.8214C8.22895 12.8273 7.90659 12.7037 7.66286 12.4766L5.09143 9.90514C4.85066 9.66407 4.71542 9.33729 4.71542 8.99657C4.71542 8.65586 4.85066 8.32907 5.09143 8.088L7.66286 5.51657C7.90393 5.2758 8.23071 5.14056 8.57143 5.14056C8.91214 5.14056 9.23893 5.2758 9.48 5.51657V5.51486ZM16.3371 5.51486C16.0945 5.28077 15.7697 5.15132 15.4326 5.15441C15.0955 5.1575 14.7731 5.29287 14.5348 5.53136C14.2965 5.76986 14.1615 6.0924 14.1587 6.42951C14.1559 6.76662 14.2857 7.09134 14.52 7.33371L16.1829 8.99657L14.52 10.6594C14.2929 10.9032 14.1693 11.2255 14.1751 11.5586C14.181 11.8917 14.3159 12.2095 14.5515 12.4451C14.7871 12.6806 15.1049 12.8156 15.438 12.8214C15.771 12.8273 16.0934 12.7037 16.3371 12.4766L18.9086 9.90514C19.1493 9.66407 19.2846 9.33729 19.2846 8.99657C19.2846 8.65586 19.1493 8.32907 18.9086 8.088L16.3371 5.51657V5.51486Z" fill="white"/>
</svg>
