<svg width="24" height="24" viewBox="0 0 24 24" fill="none" xmlns="http://www.w3.org/2000/svg">
<path fill-rule="evenodd" clip-rule="evenodd" d="M2.94735 0.48122C2.62403 0.168949 2.191 -0.00384106 1.74152 6.48045e-05C1.29204 0.00397067 0.862076 0.18426 0.544234 0.502103C0.226391 0.819945 0.0461016 1.24991 0.0421957 1.69939C0.0382899 2.14887 0.21108 2.5819 0.523351 2.90522L9.59707 11.9789L0.523351 21.0527C0.359619 21.2108 0.229021 21.3999 0.139177 21.6091C0.0493334 21.8182 0.0020427 22.0432 6.47258e-05 22.2708C-0.00191324 22.4984 0.0414611 22.7242 0.127657 22.9349C0.213853 23.1455 0.341144 23.3369 0.502103 23.4979C0.663062 23.6589 0.854465 23.7861 1.06514 23.8723C1.27582 23.9585 1.50156 24.0019 1.72918 23.9999C1.9568 23.998 2.18175 23.9507 2.3909 23.8608C2.60005 23.771 2.78921 23.6404 2.94735 23.4767L12.0211 14.4029L21.0948 23.4767C21.4181 23.7889 21.8511 23.9617 22.3006 23.9578C22.7501 23.9539 23.1801 23.7736 23.4979 23.4558C23.8157 23.1379 23.996 22.708 23.9999 22.2585C24.0038 21.809 23.8311 21.376 23.5188 21.0527L14.4451 11.9789L23.5188 2.90522C23.8311 2.5819 24.0038 2.14887 23.9999 1.69939C23.996 1.24991 23.8157 0.819945 23.4979 0.502103C23.1801 0.18426 22.7501 0.00397067 22.3006 6.48045e-05C21.8511 -0.00384106 21.4181 0.168949 21.0948 0.48122L12.0211 9.55493L2.94735 0.48122Z" fill="#ffffff"/>
</svg>
