<svg width="24" height="24" viewBox="0 0 24 24" fill="none" xmlns="http://www.w3.org/2000/svg">
<path fill-rule="evenodd" clip-rule="evenodd" d="M2.57143 3C2.57143 2.88634 2.61658 2.77733 2.69695 2.69695C2.77733 2.61658 2.88634 2.57143 3 2.57143H3.85714C4.19814 2.57143 4.52516 2.43597 4.76628 2.19485C5.0074 1.95373 5.14286 1.62671 5.14286 1.28571C5.14286 0.944722 5.0074 0.617695 4.76628 0.376577C4.52516 0.135459 4.19814 0 3.85714 0L3 0C2.20435 0 1.44129 0.31607 0.87868 0.87868C0.31607 1.44129 0 2.20435 0 3L0 3.85714C0 4.19814 0.135459 4.52516 0.376577 4.76628C0.617695 5.0074 0.944722 5.14286 1.28571 5.14286C1.62671 5.14286 1.95373 5.0074 2.19485 4.76628C2.43597 4.52516 2.57143 4.19814 2.57143 3.85714V3ZM18.8571 1.28571C18.8571 0.944722 18.9926 0.617695 19.2337 0.376577C19.4748 0.135459 19.8019 0 20.1429 0L21 0C22.656 0 24 1.344 24 3V3.85714C24 4.19814 23.8645 4.52516 23.6234 4.76628C23.3823 5.0074 23.0553 5.14286 22.7143 5.14286C22.3733 5.14286 22.0463 5.0074 21.8051 4.76628C21.564 4.52516 21.4286 4.19814 21.4286 3.85714V3C21.4286 2.88634 21.3834 2.77733 21.303 2.69695C21.2227 2.61658 21.1137 2.57143 21 2.57143H20.1429C19.8019 2.57143 19.4748 2.43597 19.2337 2.19485C18.9926 1.95373 18.8571 1.62671 18.8571 1.28571ZM6 8.57143C6 7.88944 6.27092 7.23539 6.75315 6.75315C7.23539 6.27092 7.88944 6 8.57143 6H15.4286C16.1106 6 16.7646 6.27092 17.2468 6.75315C17.7291 7.23539 18 7.88944 18 8.57143V15.4286C18 16.1106 17.7291 16.7646 17.2468 17.2468C16.7646 17.7291 16.1106 18 15.4286 18H8.57143C7.88944 18 7.23539 17.7291 6.75315 17.2468C6.27092 16.7646 6 16.1106 6 15.4286V8.57143ZM22.7143 18.8571C23.0553 18.8571 23.3823 18.9926 23.6234 19.2337C23.8645 19.4748 24 19.8019 24 20.1429V21C24 21.7956 23.6839 22.5587 23.1213 23.1213C22.5587 23.6839 21.7956 24 21 24H20.1429C19.8019 24 19.4748 23.8645 19.2337 23.6234C18.9926 23.3823 18.8571 23.0553 18.8571 22.7143C18.8571 22.3733 18.9926 22.0463 19.2337 21.8051C19.4748 21.564 19.8019 21.4286 20.1429 21.4286H21C21.1137 21.4286 21.2227 21.3834 21.303 21.303C21.3834 21.2227 21.4286 21.1137 21.4286 21V20.1429C21.4286 19.8019 21.564 19.4748 21.8051 19.2337C22.0463 18.9926 22.3733 18.8571 22.7143 18.8571ZM2.57143 20.1429C2.57143 19.8019 2.43597 19.4748 2.19485 19.2337C1.95373 18.9926 1.62671 18.8571 1.28571 18.8571C0.944722 18.8571 0.617695 18.9926 0.376577 19.2337C0.135459 19.4748 0 19.8019 0 20.1429L0 21C0 22.656 1.344 24 3 24H3.85714C4.19814 24 4.52516 23.8645 4.76628 23.6234C5.0074 23.3823 5.14286 23.0553 5.14286 22.7143C5.14286 22.3733 5.0074 22.0463 4.76628 21.8051C4.52516 21.564 4.19814 21.4286 3.85714 21.4286H3C2.88634 21.4286 2.77733 21.3834 2.69695 21.303C2.61658 21.2227 2.57143 21.1137 2.57143 21V20.1429ZM9 22.7143C9 22.5454 9.03326 22.3783 9.09787 22.2223C9.16248 22.0663 9.25719 21.9245 9.37658 21.8051C9.49597 21.6858 9.6377 21.5911 9.79369 21.5264C9.94968 21.4618 10.1169 21.4286 10.2857 21.4286H13.7143C14.0553 21.4286 14.3823 21.564 14.6234 21.8051C14.8645 22.0463 15 22.3733 15 22.7143C15 23.0553 14.8645 23.3823 14.6234 23.6234C14.3823 23.8645 14.0553 24 13.7143 24H10.2857C9.94472 24 9.6177 23.8645 9.37658 23.6234C9.13546 23.3823 9 23.0553 9 22.7143ZM10.2857 0C9.94472 0 9.6177 0.135459 9.37658 0.376577C9.13546 0.617695 9 0.944722 9 1.28571C9 1.62671 9.13546 1.95373 9.37658 2.19485C9.6177 2.43597 9.94472 2.57143 10.2857 2.57143H13.7143C14.0553 2.57143 14.3823 2.43597 14.6234 2.19485C14.8645 1.95373 15 1.62671 15 1.28571C15 0.944722 14.8645 0.617695 14.6234 0.376577C14.3823 0.135459 14.0553 0 13.7143 0L10.2857 0ZM1.28571 9C1.62671 9 1.95373 9.13546 2.19485 9.37658C2.43597 9.6177 2.57143 9.94472 2.57143 10.2857V13.7143C2.57143 14.0553 2.43597 14.3823 2.19485 14.6234C1.95373 14.8645 1.62671 15 1.28571 15C0.944722 15 0.617695 14.8645 0.376577 14.6234C0.135459 14.3823 0 14.0553 0 13.7143L0 10.2857C0 9.94472 0.135459 9.6177 0.376577 9.37658C0.617695 9.13546 0.944722 9 1.28571 9ZM24 10.2857C24 9.94472 23.8645 9.6177 23.6234 9.37658C23.3823 9.13546 23.0553 9 22.7143 9C22.3733 9 22.0463 9.13546 21.8051 9.37658C21.564 9.6177 21.4286 9.94472 21.4286 10.2857V13.7143C21.4286 14.0553 21.564 14.3823 21.8051 14.6234C22.0463 14.8645 22.3733 15 22.7143 15C23.0553 15 23.3823 14.8645 23.6234 14.6234C23.8645 14.3823 24 14.0553 24 13.7143V10.2857Z" fill="#ffffff"/>
</svg>
