<svg width="43" height="46" viewBox="0 0 43 46" fill="none" xmlns="http://www.w3.org/2000/svg">
<path fill-rule="evenodd" clip-rule="evenodd" d="M21.4984 0C22.151 0 22.777 0.259272 23.2385 0.720779C23.7 1.18229 23.9593 1.80822 23.9593 2.46089V10.362H27.7982C28.1231 10.3614 28.4409 10.4573 28.7112 10.6376C28.9816 10.8178 29.1923 11.0742 29.3167 11.3744C29.4411 11.6745 29.4736 12.0048 29.4101 12.3235C29.3465 12.6421 29.1898 12.9347 28.9598 13.1641L22.6599 19.464C22.5075 19.6168 22.3265 19.738 22.1271 19.8207C21.9278 19.9034 21.7142 19.946 21.4984 19.946C21.2826 19.946 21.0689 19.9034 20.8696 19.8207C20.6703 19.738 20.4892 19.6168 20.3368 19.464L14.0369 13.1641C13.8071 12.9349 13.6504 12.6426 13.5868 12.3243C13.5231 12.0059 13.5554 11.6759 13.6794 11.3759C13.8034 11.0759 14.0136 10.8194 14.2834 10.6389C14.5533 10.4584 14.8706 10.3621 15.1952 10.362H19.0375V2.46089C19.0375 1.80822 19.2967 1.18229 19.7582 0.720779C20.2198 0.259272 20.8457 0 21.4984 0ZM5.37459 13.5513H9.66639C9.92888 14.4799 10.4211 15.3494 11.1364 16.0647L17.4362 22.3646C17.9695 22.8979 18.6025 23.3209 19.2992 23.6095C19.9959 23.8981 20.7426 24.0466 21.4967 24.0466C22.2508 24.0466 22.9976 23.8981 23.6943 23.6095C24.391 23.3209 25.024 22.8979 25.5572 22.3646L31.8604 16.0647C32.5757 15.3494 33.0711 14.4799 33.3303 13.548H37.6221C40.5916 13.548 43 15.9564 43 18.9226V19.4017L21.4984 31.9293L0 19.4017V18.9226C0 15.9564 2.40511 13.548 5.37459 13.548V13.5513ZM0 24.1463V40.421C0 43.3905 2.40511 45.7956 5.37459 45.7956H37.6221C40.5916 45.7956 43 43.3905 43 40.421V24.1463L22.5319 36.0734C22.2182 36.2565 21.8616 36.3529 21.4984 36.3529C21.1352 36.3529 20.7785 36.2565 20.4648 36.0734L0 24.1496V24.1463Z" fill="#274574"/>
</svg>
