<svg xmlns="http://www.w3.org/2000/svg" width="59" height="204" viewBox="0 0 59 204" fill="none">
  <g clip-path="url(#clip0_16_5644)">
    <line x1="-7.58815" y1="-84.2835" x2="182.412" y2="191.716" stroke="#4E4E4E"/>
    <line x1="-13.5882" y1="-80.2835" x2="176.412" y2="195.716" stroke="#4E4E4E"/>
    <line x1="-19.5882" y1="-76.2835" x2="170.412" y2="199.716" stroke="#4E4E4E"/>
    <line x1="-25.5882" y1="-72.2835" x2="164.412" y2="203.716" stroke="#4E4E4E"/>
    <line x1="-31.5882" y1="-68.2835" x2="158.412" y2="207.716" stroke="#4E4E4E"/>
    <line x1="-37.5882" y1="-64.2835" x2="152.412" y2="211.716" stroke="#4E4E4E"/>
    <line x1="-43.5882" y1="-60.2835" x2="146.412" y2="215.716" stroke="#4E4E4E"/>
    <line x1="-49.5882" y1="-56.2835" x2="140.412" y2="219.716" stroke="#4E4E4E"/>
    <line x1="-55.5882" y1="-52.2835" x2="134.412" y2="223.716" stroke="#4E4E4E"/>
    <line x1="-61.5882" y1="-48.2835" x2="128.412" y2="227.716" stroke="#4E4E4E"/>
    <line x1="-67.5882" y1="-44.2835" x2="122.412" y2="231.716" stroke="#4E4E4E"/>
    <line x1="-73.5882" y1="-40.2835" x2="116.412" y2="235.716" stroke="#4E4E4E"/>
    <line x1="-79.5882" y1="-36.2835" x2="110.412" y2="239.716" stroke="#4E4E4E"/>
    <line x1="-85.5882" y1="-32.2835" x2="104.412" y2="243.716" stroke="#4E4E4E"/>
    <line x1="-91.5882" y1="-28.2835" x2="98.4118" y2="247.716" stroke="#4E4E4E"/>
    <line x1="-97.5882" y1="-24.2835" x2="92.4118" y2="251.716" stroke="#4E4E4E"/>
    <line x1="-103.588" y1="-20.2835" x2="86.4118" y2="255.716" stroke="#4E4E4E"/>
    <line x1="-109.588" y1="-16.2835" x2="80.4118" y2="259.716" stroke="#4E4E4E"/>
    <line x1="-115.588" y1="-12.2835" x2="74.4118" y2="263.716" stroke="#4E4E4E"/>
    <line x1="-121.588" y1="-8.28352" x2="68.4118" y2="267.716" stroke="#4E4E4E"/>
    <line x1="-127.588" y1="-4.28352" x2="62.4119" y2="271.716" stroke="#4E4E4E"/>
    <line x1="-133.588" y1="-0.283518" x2="56.4119" y2="275.716" stroke="#4E4E4E"/>
    <line x1="-139.588" y1="3.71648" x2="50.4119" y2="279.716" stroke="#4E4E4E"/>
    <line x1="-145.588" y1="7.71648" x2="44.4119" y2="283.716" stroke="#4E4E4E"/>
    <line x1="-151.588" y1="11.7165" x2="38.4119" y2="287.716" stroke="#4E4E4E"/>
    <line x1="-157.588" y1="15.7165" x2="32.4119" y2="291.716" stroke="#4E4E4E"/>
    <line x1="-163.588" y1="19.7165" x2="26.4119" y2="295.716" stroke="#4E4E4E"/>
    <line x1="25.4268" y1="-60.2605" x2="83.4268" y2="34.7395" stroke="#4E4E4E"/>
  </g>
  <defs>
    <clipPath id="clip0_16_5644">
      <rect width="59" height="204" fill="white"/>
    </clipPath>
  </defs>
</svg>