<svg width="21" height="21" viewBox="0 0 21 21" fill="none" xmlns="http://www.w3.org/2000/svg">
<path fill-rule="evenodd" clip-rule="evenodd" d="M3.375 0C2.47989 0 1.62145 0.355579 0.988515 0.988515C0.355579 1.62145 0 2.47989 0 3.375L0 14.625C0 14.9234 0.118526 15.2095 0.329505 15.4205C0.540483 15.6315 0.826631 15.75 1.125 15.75C1.42337 15.75 1.70952 15.6315 1.9205 15.4205C2.13147 15.2095 2.25 14.9234 2.25 14.625V3.375C2.25 3.07663 2.36853 2.79048 2.5795 2.5795C2.79048 2.36853 3.07663 2.25 3.375 2.25H14.625C14.9234 2.25 15.2095 2.13147 15.4205 1.9205C15.6315 1.70952 15.75 1.42337 15.75 1.125C15.75 0.826631 15.6315 0.540483 15.4205 0.329505C15.2095 0.118526 14.9234 0 14.625 0L3.375 0ZM6.75 4.5C6.15326 4.5 5.58097 4.73705 5.15901 5.15901C4.73705 5.58097 4.5 6.15326 4.5 6.75V18.75C4.5 19.0455 4.5582 19.3381 4.67127 19.611C4.78434 19.884 4.95008 20.1321 5.15901 20.341C5.36794 20.5499 5.61598 20.7157 5.88896 20.8287C6.16194 20.9418 6.45453 21 6.75 21H18.75C19.0455 21 19.3381 20.9418 19.611 20.8287C19.884 20.7157 20.1321 20.5499 20.341 20.341C20.5499 20.1321 20.7157 19.884 20.8287 19.611C20.9418 19.3381 21 19.0455 21 18.75V6.75C21 6.45453 20.9418 6.16194 20.8287 5.88896C20.7157 5.61598 20.5499 5.36794 20.341 5.15901C20.1321 4.95008 19.884 4.78434 19.611 4.67127C19.3381 4.5582 19.0455 4.5 18.75 4.5H6.75Z" fill="#ffffff"/>
</svg>
