<svg width="52" height="52" viewBox="0 0 52 52" fill="none" xmlns="http://www.w3.org/2000/svg">
<path id="Vector" d="M24.2972 0.0139934C24.1853 0.0241581 23.8295 0.0597345 23.5093 0.0851462C16.1236 0.750933 9.20547 4.73549 4.82385 10.8597C2.38397 14.2649 0.82346 18.1275 0.233822 22.2187C0.0254154 23.6469 0 24.0687 0 26.0051C0 27.9415 0.0254154 28.3633 0.233822 29.7914C1.64692 39.5546 8.5955 47.7575 18.0196 50.7968C19.7071 51.3406 21.4862 51.7116 23.5093 51.9352C24.2972 52.0216 27.7028 52.0216 28.4907 51.9352C31.9828 51.5489 34.9412 50.6849 37.8588 49.1958C38.3062 48.9671 38.3926 48.9061 38.3316 48.8553C38.2909 48.8248 36.3848 46.2684 34.0974 43.1783L29.9394 37.5623L24.7292 29.8524C21.8624 25.6138 19.5038 22.1476 19.4835 22.1476C19.4631 22.1425 19.4428 25.568 19.4326 29.7508C19.4174 37.0744 19.4123 37.3692 19.3208 37.542C19.1887 37.791 19.087 37.8927 18.8735 38.0045C18.7108 38.0858 18.5685 38.1011 17.801 38.1011H16.9216L16.6878 37.9537C16.5353 37.8571 16.4235 37.7301 16.3472 37.5827L16.2405 37.354L16.2506 27.1639L16.2659 16.9687L16.4235 16.7705C16.5048 16.6637 16.6776 16.5265 16.7996 16.4605C17.008 16.3588 17.0893 16.3486 17.9687 16.3486C19.0057 16.3486 19.1785 16.3893 19.4479 16.6841C19.5241 16.7654 22.3453 21.0142 25.7204 26.1322C29.0956 31.2501 33.711 38.2383 35.9781 41.6689L40.0954 47.9049L40.3038 47.7677C42.149 46.5682 44.1009 44.8606 45.6461 43.0818C48.9349 39.3056 51.0545 34.701 51.7662 29.7914C51.9746 28.3633 52 27.9415 52 26.0051C52 24.0687 51.9746 23.6469 51.7662 22.2187C50.3531 12.4556 43.4045 4.25267 33.9804 1.21343C32.3183 0.674698 30.5494 0.303687 28.567 0.0800638C28.079 0.0292404 24.7191 -0.0266654 24.2972 0.0139934ZM34.9412 15.7388C35.1851 15.8607 35.3834 16.0945 35.4545 16.3385C35.4952 16.4706 35.5054 19.2964 35.4952 25.6646L35.48 34.8026L33.8686 32.3326L32.2522 29.8626V23.22C32.2522 18.9254 32.2725 16.5113 32.303 16.3944C32.3844 16.1098 32.5623 15.8861 32.8063 15.754C33.0147 15.6473 33.0909 15.6371 33.889 15.6371C34.6413 15.6371 34.7734 15.6473 34.9412 15.7388Z" fill="black"/>
</svg>
