<?xml version="1.0" ?><!DOCTYPE svg  PUBLIC '-//W3C//DTD SVG 1.1//EN'  'http://www.w3.org/Graphics/SVG/1.1/DTD/svg11.dtd'><svg height="512px" style="enable-background:new 0 0 512 512;" version="1.1" viewBox="0 0 512 512" width="512px" xml:space="preserve" xmlns="http://www.w3.org/2000/svg" xmlns:xlink="http://www.w3.org/1999/xlink"><g id="comp_x5F_332-swift"><g><g><g><path d="M308.204,59.211C505.416,191.17,441.464,336.18,441.464,336.18s56.017,62.159,33.499,116.609      c0,0-23.239-38.037-61.817-38.037c-37.295,0-59.357,38.037-134.64,38.037c-167.437,0-246.806-137.58-246.806-137.58      c150.892,97.832,253.986,28.502,253.986,28.502C217.557,304.975,73.055,119.45,73.055,119.45      c125.97,105.458,180.332,133.146,180.332,133.146c-32.688-26.31-123.784-155.27-123.784-155.27      C202.5,169.83,347.397,270.93,347.397,270.93C388.948,159.206,308.204,59.211,308.204,59.211L308.204,59.211z" style="fill:#FFFFFF;"/><path d="M474.961,462.789c-3.458,0-6.695-1.793-8.522-4.771c-0.401-0.643-21.099-33.266-53.293-33.266      c-13.017,0-24.362,5.75-38.726,13.029c-21.982,11.142-49.341,25.008-95.914,25.008c-39.518,0-77.551-7.491-113.043-22.265      c-28.361-11.805-55.141-28.251-79.596-48.882c-41.632-35.12-61.982-69.97-62.829-71.437c-2.309-4.003-1.575-9.067,1.777-12.249      c3.352-3.183,8.447-3.652,12.325-1.139c51.915,33.659,103.516,50.727,153.369,50.727c34.459,0,60.494-8.418,75.395-14.875      C193.385,289.719,70.715,132.72,65.166,125.595c-3.142-4.034-2.735-9.789,0.944-13.34s9.444-3.754,13.364-0.473      c49.63,41.549,88.156,70.989,116.5,91.348c-35.125-44.335-72.141-96.64-74.539-100.034c-2.993-4.237-2.249-10.06,1.714-13.408      c3.962-3.349,9.827-3.11,13.506,0.548c59.87,59.546,170.417,139.733,205.497,164.732      c29.082-100.156-40.986-188.557-41.728-189.475c-3.104-3.845-2.935-9.382,0.399-13.03c3.334-3.646,8.833-4.313,12.942-1.563      c46.063,30.822,81.977,65.024,106.743,101.657c20.047,29.651,32.882,60.941,38.147,93.003      c7.075,43.074-1.417,75.721-5.782,88.647c13.146,16.301,52.476,71.27,31.33,122.403c-1.438,3.479-4.708,5.854-8.461,6.148      C475.481,462.779,475.221,462.789,474.961,462.789z M69.276,347.918c8.25,9.077,18.27,19.024,30.061,28.922      c52.134,43.761,112.415,65.949,179.169,65.949c41.794,0,65.743-12.138,86.873-22.847c15.413-7.812,29.971-15.19,47.767-15.19      c25.634,0,45.041,14.144,56.917,26.186c3.75-43.303-35.573-87.56-36.027-88.063c-2.637-2.926-3.311-7.126-1.721-10.729      c0.138-0.318,14.862-35.042,6.406-84.536c-9.114-53.345-41.797-104.394-95.332-149.551c3.181,6.588,6.349,13.787,9.326,21.526      c20.505,53.291,21.907,106.832,4.056,154.832c-1.079,2.9-3.438,5.138-6.392,6.06c-2.955,0.925-6.166,0.426-8.704-1.344      c-4.316-3.012-79.56-55.644-148.278-111.918c24.888,32.632,51.824,65.975,66.259,77.594c3.991,3.212,4.909,8.922,2.125,13.223      c-2.784,4.302-8.369,5.803-12.934,3.478c-1.743-0.888-34.57-17.887-106.997-73.75c47.241,55.661,110.86,125.703,148.777,147.261      c3.01,1.712,4.921,4.858,5.051,8.317c0.13,3.46-1.539,6.741-4.412,8.674c-1.55,1.042-38.677,25.536-100.758,25.536      C150.703,377.545,110.084,367.601,69.276,347.918z" style="fill:#F05138;"/></g></g></g></g><g id="Layer_1"/></svg>