<svg width="18" height="18" viewBox="0 0 18 18" fill="none" xmlns="http://www.w3.org/2000/svg">
<g id="store-1--store-shop-shops-stores">
<path id="Union" fill-rule="evenodd" clip-rule="evenodd" d="M2.57143 3.6689e-08C2.44919 -4.12545e-05 2.32947 0.0347713 2.22631 0.100355C2.12315 0.16594 2.04083 0.259576 1.989 0.370286L0.0604286 4.49614C0.0131334 4.59768 -0.006811 4.70981 0.00257143 4.82143H0V6.03643C0 6.71014 0.290571 7.35557 0.81 7.83129C1.32686 8.307 2.03014 8.57443 2.763 8.57443H3.14871C3.87001 8.57902 4.567 8.31398 5.103 7.83129C5.31386 7.63843 5.48614 7.41729 5.61729 7.17814C5.78057 6.95957 6.04543 6.95957 6.19843 7.16014C6.33086 7.407 6.507 7.63329 6.72171 7.83129C7.23986 8.307 7.94314 8.57443 8.676 8.57443H9.36643C10.0877 8.57902 10.7847 8.31398 11.3207 7.83129C11.5213 7.64614 11.6884 7.43657 11.817 7.209C11.9854 6.94543 12.2799 6.95186 12.4341 7.19614C12.564 7.42886 12.7337 7.64357 12.9381 7.83129C13.4563 8.307 14.1596 8.57443 14.8924 8.57443H15.237C15.9583 8.57902 16.6553 8.31398 17.1913 7.83129C17.7094 7.35557 18 6.71014 18 6.03643V4.82143H17.9974C18.0068 4.70981 17.9869 4.59768 17.9396 4.49614L16.011 0.370286C15.9592 0.259576 15.8768 0.16594 15.7737 0.100355C15.6705 0.0347713 15.5508 -4.12545e-05 15.4286 3.6689e-08H2.57143ZM1.28571 16.7143V9.93729C2.81314 10.4413 4.635 10.2163 5.886 9.24814C7.55486 10.539 10.449 10.539 12.1166 9.24814C13.374 10.2201 15.192 10.4413 16.7143 9.92443V16.7143C16.7143 17.0553 16.5788 17.3823 16.3377 17.6234C16.0966 17.8645 15.7696 18 15.4286 18H13.815V13.1271C13.8147 13.0895 13.8066 13.0523 13.7911 13.018C13.7756 12.9837 13.7531 12.953 13.725 12.9279C13.665 12.874 13.587 12.8446 13.5064 12.8456H10.9453C10.8647 12.8446 10.7867 12.874 10.7267 12.9279C10.6986 12.953 10.6761 12.9837 10.6606 13.018C10.6451 13.0523 10.637 13.0895 10.6367 13.1271V18H2.57143C2.23044 18 1.90341 17.8645 1.66229 17.6234C1.42117 17.3823 1.28571 17.0553 1.28571 16.7143ZM3.21686 13.8343V12.2143C3.21686 12.0438 3.28459 11.8803 3.40515 11.7597C3.5257 11.6392 3.68922 11.5714 3.85971 11.5714H7.73486C7.90535 11.5714 8.06887 11.6392 8.18943 11.7597C8.30999 11.8803 8.37771 12.0438 8.37771 12.2143V13.8343C8.37771 14.0048 8.30999 14.1683 8.18943 14.2889C8.06887 14.4094 7.90535 14.4771 7.73486 14.4771H3.85971C3.68922 14.4771 3.5257 14.4094 3.40515 14.2889C3.28459 14.1683 3.21686 14.0048 3.21686 13.8343Z" fill="white"/>
</g>
</svg>
