<svg width="552" height="354" viewBox="0 0 552 354" fill="none" xmlns="http://www.w3.org/2000/svg">
<g clip-path="url(#clip0_22_6124)">
<rect x="0.5" y="0.5" width="551" height="353" rx="29.5" fill="#EBECF1" stroke="#CFD8E6"/>
<circle cx="276" cy="177" r="300" fill="#DA4929" fill-opacity="0.05"/>
<circle cx="275.5" cy="185.5" r="266.5" fill="#DA4929" fill-opacity="0.07"/>
<circle cx="276" cy="199" r="226" fill="#DA4929" fill-opacity="0.09"/>
<circle cx="275.5" cy="198.5" r="188.5" fill="#DA4929" fill-opacity="0.06"/>
<circle cx="276" cy="199" r="150" fill="#DA4929" fill-opacity="0.18"/>
<circle cx="276" cy="199" r="103" fill="#DA4929" fill-opacity="0.29"/>
<circle cx="276" cy="199" r="50" fill="#DA4929"/>
<g filter="url(#filter0_d_22_6124)">
<path fill-rule="evenodd" clip-rule="evenodd" d="M266.287 179.289C267.11 178.465 268.226 178.001 269.391 178H281.609C282.774 178.001 283.89 178.465 284.713 179.289L294.714 189.287C295.537 190.11 296 191.227 296 192.391V204.609C295.999 205.774 295.535 206.89 294.711 207.713L284.713 217.714C283.89 218.537 282.773 219 281.609 219H269.391C268.226 218.999 267.11 218.535 266.287 217.711L256.286 207.716C255.878 207.308 255.554 206.824 255.334 206.29C255.113 205.757 255 205.186 255 204.609V192.391C255 191.225 255.463 190.107 256.289 189.287L266.284 179.286L266.287 179.289ZM275.5 187.149C276.083 187.149 276.641 187.38 277.053 187.792C277.465 188.204 277.696 188.763 277.696 189.345V198.863C277.696 199.446 277.465 200.004 277.053 200.416C276.641 200.828 276.083 201.06 275.5 201.06C274.917 201.06 274.359 200.828 273.947 200.416C273.535 200.004 273.304 199.446 273.304 198.863V189.345C273.304 188.763 273.535 188.204 273.947 187.792C274.359 187.38 274.917 187.149 275.5 187.149ZM278.429 206.917C278.429 207.693 278.12 208.438 277.571 208.988C277.022 209.537 276.277 209.845 275.5 209.845C274.723 209.845 273.978 209.537 273.429 208.988C272.88 208.438 272.571 207.693 272.571 206.917C272.571 206.14 272.88 205.395 273.429 204.846C273.978 204.297 274.723 203.988 275.5 203.988C276.277 203.988 277.022 204.297 277.571 204.846C278.12 205.395 278.429 206.14 278.429 206.917Z" fill="white"/>
</g>
<g filter="url(#filter1_ddddd_22_6124)">
<rect x="156" y="242" width="240" height="48" rx="13" fill="url(#paint0_linear_22_6124)"/>
</g>
<path d="M187.774 261.804H184.066V273H182.518V261.804H178.81V260.4H187.774V261.804ZM191.859 273.126C191.019 273.126 190.299 272.91 189.699 272.478C189.111 272.046 188.661 271.458 188.349 270.714C188.037 269.97 187.881 269.13 187.881 268.194C187.881 267.258 188.037 266.418 188.349 265.674C188.673 264.918 189.135 264.33 189.735 263.91C190.347 263.478 191.073 263.262 191.913 263.262C192.753 263.262 193.431 263.46 193.947 263.856C194.463 264.252 194.853 264.726 195.117 265.278H195.243V263.514H196.809V273H195.243V271.056H195.117C194.829 271.62 194.421 272.106 193.893 272.514C193.365 272.922 192.687 273.126 191.859 273.126ZM192.345 271.794C193.269 271.794 193.977 271.452 194.469 270.768C194.961 270.072 195.207 269.214 195.207 268.194C195.207 267.174 194.961 266.322 194.469 265.638C193.977 264.942 193.269 264.594 192.345 264.594C191.397 264.594 190.677 264.936 190.185 265.62C189.705 266.304 189.465 267.156 189.465 268.176C189.465 269.208 189.705 270.072 190.185 270.768C190.677 271.452 191.397 271.794 192.345 271.794ZM199.601 259.554H201.167V267.114H201.239L204.839 263.514H206.603L202.409 267.78L206.783 273H205.001L201.239 268.374H201.167V273H199.601V259.554ZM208.955 263.514H210.503V273H208.955V263.514ZM209.711 261.75C209.423 261.75 209.183 261.654 208.991 261.462C208.799 261.258 208.703 261.018 208.703 260.742C208.703 260.466 208.799 260.232 208.991 260.04C209.183 259.836 209.423 259.734 209.711 259.734C209.999 259.734 210.239 259.836 210.431 260.04C210.635 260.232 210.737 260.466 210.737 260.742C210.737 261.018 210.635 261.258 210.431 261.462C210.239 261.654 209.999 261.75 209.711 261.75ZM213.381 263.514H214.929V265.224H215.073C215.313 264.672 215.703 264.21 216.243 263.838C216.783 263.454 217.443 263.262 218.223 263.262C219.027 263.262 219.699 263.454 220.239 263.838C220.779 264.21 221.175 264.708 221.427 265.332C221.691 265.944 221.823 266.61 221.823 267.33V273H220.275V267.528C220.275 266.592 220.029 265.878 219.537 265.386C219.057 264.894 218.427 264.648 217.647 264.648C216.819 264.648 216.159 264.918 215.667 265.458C215.175 265.986 214.929 266.676 214.929 267.528V273H213.381V263.514ZM228.703 276.798C228.343 276.798 228.049 276.774 227.821 276.726C227.605 276.678 227.383 276.612 227.155 276.528V275.232C227.311 275.28 227.521 275.322 227.785 275.358C228.049 275.406 228.307 275.43 228.559 275.43C229.495 275.43 230.197 275.166 230.665 274.638C231.145 274.11 231.385 273.408 231.385 272.532V270.822H231.241C230.989 271.386 230.581 271.866 230.017 272.262C229.465 272.646 228.793 272.838 228.001 272.838C227.209 272.838 226.513 272.634 225.913 272.226C225.313 271.818 224.845 271.254 224.509 270.534C224.185 269.802 224.023 268.968 224.023 268.032C224.023 267.096 224.185 266.268 224.509 265.548C224.845 264.816 225.313 264.246 225.913 263.838C226.513 263.43 227.209 263.226 228.001 263.226C228.829 263.226 229.519 263.442 230.071 263.874C230.635 264.294 231.031 264.786 231.259 265.35H231.385V263.532H232.951V272.532C232.951 273.204 232.813 273.864 232.537 274.512C232.273 275.16 231.823 275.7 231.187 276.132C230.551 276.576 229.723 276.798 228.703 276.798ZM228.505 271.506C229.117 271.506 229.639 271.344 230.071 271.02C230.503 270.684 230.821 270.252 231.025 269.724C231.241 269.184 231.349 268.608 231.349 267.996C231.349 267.396 231.241 266.838 231.025 266.322C230.821 265.806 230.503 265.386 230.071 265.062C229.651 264.738 229.129 264.576 228.505 264.576C227.581 264.576 226.873 264.912 226.381 265.584C225.901 266.244 225.661 267.048 225.661 267.996C225.661 268.62 225.763 269.202 225.967 269.742C226.183 270.27 226.501 270.696 226.921 271.02C227.353 271.344 227.881 271.506 228.505 271.506ZM243.851 273.126C242.867 273.126 242.033 272.892 241.349 272.424C240.677 271.956 240.179 271.35 239.855 270.606C239.531 269.85 239.369 269.046 239.369 268.194C239.369 267.342 239.531 266.544 239.855 265.8C240.179 265.044 240.677 264.432 241.349 263.964C242.033 263.496 242.867 263.262 243.851 263.262C245.075 263.262 246.035 263.616 246.731 264.324C247.439 265.032 247.865 265.902 248.009 266.934H246.497C246.389 266.238 246.113 265.674 245.669 265.242C245.225 264.798 244.625 264.576 243.869 264.576C242.909 264.576 242.177 264.924 241.673 265.62C241.181 266.304 240.935 267.162 240.935 268.194C240.935 269.226 241.181 270.09 241.673 270.786C242.177 271.47 242.909 271.812 243.869 271.812C244.625 271.812 245.225 271.596 245.669 271.164C246.113 270.732 246.389 270.162 246.497 269.454H248.009C247.865 270.486 247.439 271.356 246.731 272.064C246.035 272.772 245.075 273.126 243.851 273.126ZM253.646 273.126C252.806 273.126 252.086 272.91 251.486 272.478C250.898 272.046 250.448 271.458 250.136 270.714C249.824 269.97 249.668 269.13 249.668 268.194C249.668 267.258 249.824 266.418 250.136 265.674C250.46 264.918 250.922 264.33 251.522 263.91C252.134 263.478 252.86 263.262 253.7 263.262C254.54 263.262 255.218 263.46 255.734 263.856C256.25 264.252 256.64 264.726 256.904 265.278H257.03V263.514H258.596V273H257.03V271.056H256.904C256.616 271.62 256.208 272.106 255.68 272.514C255.152 272.922 254.474 273.126 253.646 273.126ZM254.132 271.794C255.056 271.794 255.764 271.452 256.256 270.768C256.748 270.072 256.994 269.214 256.994 268.194C256.994 267.174 256.748 266.322 256.256 265.638C255.764 264.942 255.056 264.594 254.132 264.594C253.184 264.594 252.464 264.936 251.972 265.62C251.492 266.304 251.252 267.156 251.252 268.176C251.252 269.208 251.492 270.072 251.972 270.768C252.464 271.452 253.184 271.794 254.132 271.794ZM261.262 263.514H262.81V265.026H262.918C263.074 264.606 263.35 264.252 263.746 263.964C264.154 263.664 264.664 263.514 265.276 263.514C265.468 263.514 265.618 263.526 265.726 263.55C265.846 263.562 265.978 263.592 266.122 263.64L266.068 265.152C265.876 265.092 265.708 265.05 265.564 265.026C265.432 265.002 265.258 264.99 265.042 264.99C263.554 264.99 262.81 265.872 262.81 267.636V273H261.262V263.514ZM271.553 273.126C270.581 273.126 269.759 272.892 269.087 272.424C268.427 271.956 267.935 271.344 267.611 270.588C267.287 269.832 267.125 269.034 267.125 268.194C267.125 267.342 267.287 266.544 267.611 265.8C267.935 265.044 268.433 264.432 269.105 263.964C269.777 263.496 270.599 263.262 271.571 263.262C272.843 263.262 273.857 263.688 274.613 264.54C275.381 265.392 275.765 266.616 275.765 268.212V268.644H268.673V268.77C268.673 269.298 268.793 269.796 269.033 270.264C269.273 270.732 269.609 271.11 270.041 271.398C270.473 271.686 270.971 271.83 271.535 271.83C272.147 271.83 272.675 271.674 273.119 271.362C273.563 271.05 273.893 270.63 274.109 270.102H275.639C275.387 270.966 274.913 271.686 274.217 272.262C273.533 272.838 272.645 273.126 271.553 273.126ZM274.235 267.546C274.187 266.466 273.923 265.686 273.443 265.206C272.963 264.726 272.333 264.486 271.553 264.486C270.701 264.486 270.023 264.768 269.519 265.332C269.015 265.896 268.745 266.634 268.709 267.546H274.235ZM286.214 273.126C285.254 273.126 284.438 272.898 283.766 272.442C283.106 271.974 282.608 271.368 282.272 270.624C281.936 269.868 281.768 269.058 281.768 268.194C281.768 267.33 281.936 266.526 282.272 265.782C282.608 265.026 283.106 264.42 283.766 263.964C284.438 263.496 285.254 263.262 286.214 263.262C287.174 263.262 287.984 263.496 288.644 263.964C289.316 264.42 289.814 265.026 290.138 265.782C290.474 266.538 290.642 267.342 290.642 268.194C290.642 269.046 290.474 269.85 290.138 270.606C289.802 271.362 289.298 271.974 288.626 272.442C287.966 272.898 287.162 273.126 286.214 273.126ZM286.214 271.794C286.802 271.794 287.312 271.632 287.744 271.308C288.188 270.984 288.524 270.552 288.752 270.012C288.98 269.46 289.094 268.848 289.094 268.176C289.094 267.144 288.836 266.286 288.32 265.602C287.804 264.918 287.102 264.576 286.214 264.576C285.614 264.576 285.092 264.738 284.648 265.062C284.216 265.386 283.886 265.824 283.658 266.376C283.43 266.916 283.316 267.516 283.316 268.176C283.316 269.208 283.574 270.072 284.09 270.768C284.606 271.452 285.314 271.794 286.214 271.794ZM296.613 260.85C296.193 260.85 295.881 260.934 295.677 261.102C295.485 261.258 295.365 261.45 295.317 261.678C295.281 261.894 295.263 262.176 295.263 262.524V263.514H297.513V264.756H295.263V273H293.715L293.697 264.756H292.401V263.514H293.697V262.272C293.697 260.568 294.543 259.716 296.235 259.716C296.475 259.716 296.715 259.734 296.955 259.77C297.207 259.794 297.393 259.824 297.513 259.86V260.94C297.249 260.88 296.949 260.85 296.613 260.85ZM307.008 273.126C306.24 273.126 305.574 272.976 305.01 272.676C304.446 272.364 304.014 271.968 303.714 271.488C303.426 271.008 303.282 270.504 303.282 269.976V269.886H304.83V269.958C304.83 270.258 304.914 270.558 305.082 270.858C305.25 271.146 305.502 271.386 305.838 271.578C306.174 271.758 306.582 271.848 307.062 271.848C307.638 271.848 308.112 271.71 308.484 271.434C308.868 271.146 309.06 270.756 309.06 270.264C309.06 269.856 308.91 269.532 308.61 269.292C308.322 269.052 307.956 268.896 307.512 268.824L306.27 268.644C305.49 268.524 304.836 268.26 304.308 267.852C303.78 267.432 303.516 266.826 303.516 266.034C303.516 265.158 303.828 264.48 304.452 264C305.088 263.508 305.898 263.262 306.882 263.262C307.614 263.262 308.238 263.4 308.754 263.676C309.282 263.94 309.684 264.294 309.96 264.738C310.236 265.17 310.374 265.644 310.374 266.16V266.232H308.826V266.196C308.826 265.956 308.76 265.704 308.628 265.44C308.508 265.176 308.298 264.948 307.998 264.756C307.698 264.564 307.314 264.468 306.846 264.468C306.27 264.468 305.808 264.612 305.46 264.9C305.112 265.176 304.938 265.542 304.938 265.998C304.938 266.37 305.076 266.676 305.352 266.916C305.628 267.156 305.976 267.312 306.396 267.384L307.746 267.6C308.538 267.732 309.204 268.008 309.744 268.428C310.284 268.836 310.554 269.442 310.554 270.246C310.554 270.822 310.398 271.326 310.086 271.758C309.786 272.19 309.366 272.526 308.826 272.766C308.286 273.006 307.68 273.126 307.008 273.126ZM315.856 274.314C315.664 274.77 315.478 275.142 315.298 275.43C315.13 275.73 314.848 276.012 314.452 276.276C314.056 276.54 313.54 276.672 312.904 276.672C312.568 276.672 312.208 276.624 311.824 276.528V275.376C312.112 275.424 312.364 275.448 312.58 275.448C312.976 275.448 313.294 275.37 313.534 275.214C313.774 275.07 313.96 274.878 314.092 274.638C314.236 274.398 314.404 274.05 314.596 273.594L315.028 272.532L311.518 263.514H313.138L315.784 270.822H315.892L318.664 263.514H320.284L315.856 274.314ZM325.254 273.126C324.486 273.126 323.82 272.976 323.256 272.676C322.692 272.364 322.26 271.968 321.96 271.488C321.672 271.008 321.528 270.504 321.528 269.976V269.886H323.076V269.958C323.076 270.258 323.16 270.558 323.328 270.858C323.496 271.146 323.748 271.386 324.084 271.578C324.42 271.758 324.828 271.848 325.308 271.848C325.884 271.848 326.358 271.71 326.73 271.434C327.114 271.146 327.306 270.756 327.306 270.264C327.306 269.856 327.156 269.532 326.856 269.292C326.568 269.052 326.202 268.896 325.758 268.824L324.516 268.644C323.736 268.524 323.082 268.26 322.554 267.852C322.026 267.432 321.762 266.826 321.762 266.034C321.762 265.158 322.074 264.48 322.698 264C323.334 263.508 324.144 263.262 325.128 263.262C325.86 263.262 326.484 263.4 327 263.676C327.528 263.94 327.93 264.294 328.206 264.738C328.482 265.17 328.62 265.644 328.62 266.16V266.232H327.072V266.196C327.072 265.956 327.006 265.704 326.874 265.44C326.754 265.176 326.544 264.948 326.244 264.756C325.944 264.564 325.56 264.468 325.092 264.468C324.516 264.468 324.054 264.612 323.706 264.9C323.358 265.176 323.184 265.542 323.184 265.998C323.184 266.37 323.322 266.676 323.598 266.916C323.874 267.156 324.222 267.312 324.642 267.384L325.992 267.6C326.784 267.732 327.45 268.008 327.99 268.428C328.53 268.836 328.8 269.442 328.8 270.246C328.8 270.822 328.644 271.326 328.332 271.758C328.032 272.19 327.612 272.526 327.072 272.766C326.532 273.006 325.926 273.126 325.254 273.126ZM333.482 264.756V270.264C333.482 270.708 333.5 271.038 333.536 271.254C333.584 271.458 333.698 271.62 333.878 271.74C334.07 271.86 334.376 271.92 334.796 271.92C335.084 271.92 335.396 271.878 335.732 271.794V272.91C335.648 272.946 335.462 272.982 335.174 273.018C334.898 273.054 334.61 273.072 334.31 273.072C333.614 273.072 333.092 272.976 332.744 272.784C332.408 272.58 332.186 272.31 332.078 271.974C331.982 271.626 331.934 271.17 331.934 270.606V264.756H330.17V263.514H331.934V260.4H333.482V263.514H335.732V264.756H333.482ZM342.006 273.126C341.034 273.126 340.212 272.892 339.54 272.424C338.88 271.956 338.388 271.344 338.064 270.588C337.74 269.832 337.578 269.034 337.578 268.194C337.578 267.342 337.74 266.544 338.064 265.8C338.388 265.044 338.886 264.432 339.558 263.964C340.23 263.496 341.052 263.262 342.024 263.262C343.296 263.262 344.31 263.688 345.066 264.54C345.834 265.392 346.218 266.616 346.218 268.212V268.644H339.126V268.77C339.126 269.298 339.246 269.796 339.486 270.264C339.726 270.732 340.062 271.11 340.494 271.398C340.926 271.686 341.424 271.83 341.988 271.83C342.6 271.83 343.128 271.674 343.572 271.362C344.016 271.05 344.346 270.63 344.562 270.102H346.092C345.84 270.966 345.366 271.686 344.67 272.262C343.986 272.838 343.098 273.126 342.006 273.126ZM344.688 267.546C344.64 266.466 344.376 265.686 343.896 265.206C343.416 264.726 342.786 264.486 342.006 264.486C341.154 264.486 340.476 264.768 339.972 265.332C339.468 265.896 339.198 266.634 339.162 267.546H344.688ZM348.504 263.514H350.034V265.26H350.178C350.202 265.14 350.322 264.924 350.538 264.612C350.754 264.288 351.084 263.982 351.528 263.694C351.972 263.406 352.524 263.262 353.184 263.262C353.88 263.262 354.456 263.424 354.912 263.748C355.38 264.072 355.728 264.42 355.956 264.792C356.184 265.164 356.298 265.398 356.298 265.494H356.442C356.61 265.074 356.94 264.6 357.432 264.072C357.936 263.532 358.704 263.262 359.736 263.262C360.504 263.262 361.146 263.46 361.662 263.856C362.178 264.24 362.556 264.738 362.796 265.35C363.048 265.962 363.174 266.616 363.174 267.312V273H361.644V267.456C361.644 266.544 361.404 265.854 360.924 265.386C360.456 264.918 359.874 264.684 359.178 264.684C358.458 264.684 357.846 264.93 357.342 265.422C356.85 265.902 356.604 266.58 356.604 267.456V273H355.074V267.456C355.074 266.544 354.834 265.854 354.354 265.386C353.886 264.918 353.304 264.684 352.608 264.684C351.888 264.684 351.276 264.93 350.772 265.422C350.28 265.902 350.034 266.58 350.034 267.456V273H348.504V263.514ZM368.988 273.126C368.22 273.126 367.554 272.976 366.99 272.676C366.426 272.364 365.994 271.968 365.694 271.488C365.406 271.008 365.262 270.504 365.262 269.976V269.886H366.81V269.958C366.81 270.258 366.894 270.558 367.062 270.858C367.23 271.146 367.482 271.386 367.818 271.578C368.154 271.758 368.562 271.848 369.042 271.848C369.618 271.848 370.092 271.71 370.464 271.434C370.848 271.146 371.04 270.756 371.04 270.264C371.04 269.856 370.89 269.532 370.59 269.292C370.302 269.052 369.936 268.896 369.492 268.824L368.25 268.644C367.47 268.524 366.816 268.26 366.288 267.852C365.76 267.432 365.496 266.826 365.496 266.034C365.496 265.158 365.808 264.48 366.432 264C367.068 263.508 367.878 263.262 368.862 263.262C369.594 263.262 370.218 263.4 370.734 263.676C371.262 263.94 371.664 264.294 371.94 264.738C372.216 265.17 372.354 265.644 372.354 266.16V266.232H370.806V266.196C370.806 265.956 370.74 265.704 370.608 265.44C370.488 265.176 370.278 264.948 369.978 264.756C369.678 264.564 369.294 264.468 368.826 264.468C368.25 264.468 367.788 264.612 367.44 264.9C367.092 265.176 366.918 265.542 366.918 265.998C366.918 266.37 367.056 266.676 367.332 266.916C367.608 267.156 367.956 267.312 368.376 267.384L369.726 267.6C370.518 267.732 371.184 268.008 371.724 268.428C372.264 268.836 372.534 269.442 372.534 270.246C372.534 270.822 372.378 271.326 372.066 271.758C371.766 272.19 371.346 272.526 370.806 272.766C370.266 273.006 369.66 273.126 368.988 273.126Z" fill="#6E534E"/>
</g>
<defs>
<filter id="filter0_d_22_6124" x="251.5" y="174.5" width="48" height="48" filterUnits="userSpaceOnUse" color-interpolation-filters="sRGB">
<feFlood flood-opacity="0" result="BackgroundImageFix"/>
<feColorMatrix in="SourceAlpha" type="matrix" values="0 0 0 0 0 0 0 0 0 0 0 0 0 0 0 0 0 0 127 0" result="hardAlpha"/>
<feOffset/>
<feGaussianBlur stdDeviation="1.75"/>
<feComposite in2="hardAlpha" operator="out"/>
<feColorMatrix type="matrix" values="0 0 0 0 0 0 0 0 0 0 0 0 0 0 0 0 0 0 0.66 0"/>
<feBlend mode="normal" in2="BackgroundImageFix" result="effect1_dropShadow_22_6124"/>
<feBlend mode="normal" in="SourceGraphic" in2="effect1_dropShadow_22_6124" result="shape"/>
</filter>
<filter id="filter1_ddddd_22_6124" x="47" y="129" width="458" height="266" filterUnits="userSpaceOnUse" color-interpolation-filters="sRGB">
<feFlood flood-opacity="0" result="BackgroundImageFix"/>
<feColorMatrix in="SourceAlpha" type="matrix" values="0 0 0 0 0 0 0 0 0 0 0 0 0 0 0 0 0 0 127 0" result="hardAlpha"/>
<feOffset dy="-0.171058"/>
<feGaussianBlur stdDeviation="1.87202"/>
<feColorMatrix type="matrix" values="0 0 0 0 0.414372 0 0 0 0 0.213789 0 0 0 0 0.172493 0 0 0 1 0"/>
<feBlend mode="normal" in2="BackgroundImageFix" result="effect1_dropShadow_22_6124"/>
<feColorMatrix in="SourceAlpha" type="matrix" values="0 0 0 0 0 0 0 0 0 0 0 0 0 0 0 0 0 0 127 0" result="hardAlpha"/>
<feOffset dy="-0.586256"/>
<feGaussianBlur stdDeviation="4.73447"/>
<feColorMatrix type="matrix" values="0 0 0 0 0.605859 0 0 0 0 0.372483 0 0 0 0 0.325807 0 0 0 1 0"/>
<feBlend mode="normal" in2="effect1_dropShadow_22_6124" result="effect2_dropShadow_22_6124"/>
<feColorMatrix in="SourceAlpha" type="matrix" values="0 0 0 0 0 0 0 0 0 0 0 0 0 0 0 0 0 0 127 0" result="hardAlpha"/>
<feOffset dy="-1.59285"/>
<feGaussianBlur stdDeviation="9.65788"/>
<feColorMatrix type="matrix" values="0 0 0 0 0.638135 0 0 0 0 0.638135 0 0 0 0 0.638135 0 0 0 0.294456 0"/>
<feBlend mode="normal" in2="effect2_dropShadow_22_6124" result="effect3_dropShadow_22_6124"/>
<feColorMatrix in="SourceAlpha" type="matrix" values="0 0 0 0 0 0 0 0 0 0 0 0 0 0 0 0 0 0 127 0" result="hardAlpha"/>
<feOffset dy="-3.12268"/>
<feGaussianBlur stdDeviation="19.8934"/>
<feColorMatrix type="matrix" values="0 0 0 0 0.804362 0 0 0 0 0.580164 0 0 0 0 0.535914 0 0 0 1 0"/>
<feBlend mode="normal" in2="effect3_dropShadow_22_6124" result="effect4_dropShadow_22_6124"/>
<feColorMatrix in="SourceAlpha" type="matrix" values="0 0 0 0 0 0 0 0 0 0 0 0 0 0 0 0 0 0 127 0" result="hardAlpha"/>
<feOffset dy="-4"/>
<feGaussianBlur stdDeviation="54.5"/>
<feColorMatrix type="matrix" values="0 0 0 0 1 0 0 0 0 1 0 0 0 0 1 0 0 0 0.55 0"/>
<feBlend mode="normal" in2="effect4_dropShadow_22_6124" result="effect5_dropShadow_22_6124"/>
<feBlend mode="normal" in="SourceGraphic" in2="effect5_dropShadow_22_6124" result="shape"/>
</filter>
<linearGradient id="paint0_linear_22_6124" x1="276" y1="242" x2="276" y2="290" gradientUnits="userSpaceOnUse">
<stop stop-color="white"/>
<stop offset="0.487005" stop-color="#E0CFCC"/>
<stop offset="1" stop-color="#D19F97"/>
</linearGradient>
<clipPath id="clip0_22_6124">
<rect width="552" height="354" rx="30" fill="white"/>
</clipPath>
</defs>
</svg>
