<svg width="331" height="354" viewBox="0 0 331 354" fill="none" xmlns="http://www.w3.org/2000/svg">
<g clip-path="url(#clip0_16_4402)">
<rect x="0.5" y="0.5" width="330" height="353" rx="29.5" fill="#EBECF1" stroke="#CFD8E6"/>
<circle cx="166" cy="189" r="300" fill="#DA4929" fill-opacity="0.05"/>
<circle cx="165.5" cy="197.5" r="266.5" fill="#DA4929" fill-opacity="0.07"/>
<circle cx="166" cy="211" r="226" fill="#DA4929" fill-opacity="0.09"/>
<circle cx="165.5" cy="210.5" r="188.5" fill="#DA4929" fill-opacity="0.06"/>
<circle cx="166" cy="211" r="150" fill="#DA4929" fill-opacity="0.18"/>
<circle cx="166" cy="211" r="103" fill="#DA4929" fill-opacity="0.29"/>
<circle cx="166" cy="211" r="50" fill="#DA4929"/>
<g filter="url(#filter0_d_16_4402)">
<path fill-rule="evenodd" clip-rule="evenodd" d="M156.287 191.289C157.11 190.465 158.226 190.001 159.391 190H171.609C172.774 190.001 173.89 190.465 174.713 191.289L184.714 201.287C185.537 202.11 186 203.227 186 204.391V216.609C185.999 217.774 185.535 218.89 184.711 219.713L174.713 229.714C173.89 230.537 172.773 231 171.609 231H159.391C158.226 230.999 157.11 230.535 156.287 229.711L146.286 219.716C145.878 219.308 145.554 218.824 145.334 218.29C145.113 217.757 145 217.186 145 216.609V204.391C145 203.225 145.463 202.107 146.289 201.287L156.284 191.286L156.287 191.289ZM165.5 199.149C166.083 199.149 166.641 199.38 167.053 199.792C167.465 200.204 167.696 200.763 167.696 201.345V210.863C167.696 211.446 167.465 212.004 167.053 212.416C166.641 212.828 166.083 213.06 165.5 213.06C164.917 213.06 164.359 212.828 163.947 212.416C163.535 212.004 163.304 211.446 163.304 210.863V201.345C163.304 200.763 163.535 200.204 163.947 199.792C164.359 199.38 164.917 199.149 165.5 199.149ZM168.429 218.917C168.429 219.693 168.12 220.438 167.571 220.988C167.022 221.537 166.277 221.845 165.5 221.845C164.723 221.845 163.978 221.537 163.429 220.988C162.88 220.438 162.571 219.693 162.571 218.917C162.571 218.14 162.88 217.395 163.429 216.846C163.978 216.297 164.723 215.988 165.5 215.988C166.277 215.988 167.022 216.297 167.571 216.846C168.12 217.395 168.429 218.14 168.429 218.917Z" fill="white"/>
</g>
<g filter="url(#filter1_ddddd_16_4402)">
<rect x="46" y="254" width="240" height="48" rx="13" fill="url(#paint0_linear_16_4402)"/>
</g>
<path d="M77.774 273.804H74.066V285H72.518V273.804H68.81V272.4H77.774V273.804ZM81.8592 285.126C81.0192 285.126 80.2992 284.91 79.6992 284.478C79.1112 284.046 78.6612 283.458 78.3492 282.714C78.0372 281.97 77.8812 281.13 77.8812 280.194C77.8812 279.258 78.0372 278.418 78.3492 277.674C78.6732 276.918 79.1352 276.33 79.7352 275.91C80.3472 275.478 81.0732 275.262 81.9132 275.262C82.7532 275.262 83.4312 275.46 83.9472 275.856C84.4632 276.252 84.8532 276.726 85.1172 277.278H85.2432V275.514H86.8092V285H85.2432V283.056H85.1172C84.8292 283.62 84.4212 284.106 83.8932 284.514C83.3652 284.922 82.6872 285.126 81.8592 285.126ZM82.3452 283.794C83.2692 283.794 83.9772 283.452 84.4692 282.768C84.9612 282.072 85.2072 281.214 85.2072 280.194C85.2072 279.174 84.9612 278.322 84.4692 277.638C83.9772 276.942 83.2692 276.594 82.3452 276.594C81.3972 276.594 80.6772 276.936 80.1852 277.62C79.7052 278.304 79.4652 279.156 79.4652 280.176C79.4652 281.208 79.7052 282.072 80.1852 282.768C80.6772 283.452 81.3972 283.794 82.3452 283.794ZM89.6013 271.554H91.1673V279.114H91.2393L94.8393 275.514H96.6033L92.4093 279.78L96.7833 285H95.0013L91.2393 280.374H91.1673V285H89.6013V271.554ZM98.9545 275.514H100.503V285H98.9545V275.514ZM99.7105 273.75C99.4225 273.75 99.1825 273.654 98.9905 273.462C98.7985 273.258 98.7025 273.018 98.7025 272.742C98.7025 272.466 98.7985 272.232 98.9905 272.04C99.1825 271.836 99.4225 271.734 99.7105 271.734C99.9985 271.734 100.239 271.836 100.431 272.04C100.635 272.232 100.737 272.466 100.737 272.742C100.737 273.018 100.635 273.258 100.431 273.462C100.239 273.654 99.9985 273.75 99.7105 273.75ZM103.381 275.514H104.929V277.224H105.073C105.313 276.672 105.703 276.21 106.243 275.838C106.783 275.454 107.443 275.262 108.223 275.262C109.027 275.262 109.699 275.454 110.239 275.838C110.779 276.21 111.175 276.708 111.427 277.332C111.691 277.944 111.823 278.61 111.823 279.33V285H110.275V279.528C110.275 278.592 110.029 277.878 109.537 277.386C109.057 276.894 108.427 276.648 107.647 276.648C106.819 276.648 106.159 276.918 105.667 277.458C105.175 277.986 104.929 278.676 104.929 279.528V285H103.381V275.514ZM118.703 288.798C118.343 288.798 118.049 288.774 117.821 288.726C117.605 288.678 117.383 288.612 117.155 288.528V287.232C117.311 287.28 117.521 287.322 117.785 287.358C118.049 287.406 118.307 287.43 118.559 287.43C119.495 287.43 120.197 287.166 120.665 286.638C121.145 286.11 121.385 285.408 121.385 284.532V282.822H121.241C120.989 283.386 120.581 283.866 120.017 284.262C119.465 284.646 118.793 284.838 118.001 284.838C117.209 284.838 116.513 284.634 115.913 284.226C115.313 283.818 114.845 283.254 114.509 282.534C114.185 281.802 114.023 280.968 114.023 280.032C114.023 279.096 114.185 278.268 114.509 277.548C114.845 276.816 115.313 276.246 115.913 275.838C116.513 275.43 117.209 275.226 118.001 275.226C118.829 275.226 119.519 275.442 120.071 275.874C120.635 276.294 121.031 276.786 121.259 277.35H121.385V275.532H122.951V284.532C122.951 285.204 122.813 285.864 122.537 286.512C122.273 287.16 121.823 287.7 121.187 288.132C120.551 288.576 119.723 288.798 118.703 288.798ZM118.505 283.506C119.117 283.506 119.639 283.344 120.071 283.02C120.503 282.684 120.821 282.252 121.025 281.724C121.241 281.184 121.349 280.608 121.349 279.996C121.349 279.396 121.241 278.838 121.025 278.322C120.821 277.806 120.503 277.386 120.071 277.062C119.651 276.738 119.129 276.576 118.505 276.576C117.581 276.576 116.873 276.912 116.381 277.584C115.901 278.244 115.661 279.048 115.661 279.996C115.661 280.62 115.763 281.202 115.967 281.742C116.183 282.27 116.501 282.696 116.921 283.02C117.353 283.344 117.881 283.506 118.505 283.506ZM133.851 285.126C132.867 285.126 132.033 284.892 131.349 284.424C130.677 283.956 130.179 283.35 129.855 282.606C129.531 281.85 129.369 281.046 129.369 280.194C129.369 279.342 129.531 278.544 129.855 277.8C130.179 277.044 130.677 276.432 131.349 275.964C132.033 275.496 132.867 275.262 133.851 275.262C135.075 275.262 136.035 275.616 136.731 276.324C137.439 277.032 137.865 277.902 138.009 278.934H136.497C136.389 278.238 136.113 277.674 135.669 277.242C135.225 276.798 134.625 276.576 133.869 276.576C132.909 276.576 132.177 276.924 131.673 277.62C131.181 278.304 130.935 279.162 130.935 280.194C130.935 281.226 131.181 282.09 131.673 282.786C132.177 283.47 132.909 283.812 133.869 283.812C134.625 283.812 135.225 283.596 135.669 283.164C136.113 282.732 136.389 282.162 136.497 281.454H138.009C137.865 282.486 137.439 283.356 136.731 284.064C136.035 284.772 135.075 285.126 133.851 285.126ZM143.646 285.126C142.806 285.126 142.086 284.91 141.486 284.478C140.898 284.046 140.448 283.458 140.136 282.714C139.824 281.97 139.668 281.13 139.668 280.194C139.668 279.258 139.824 278.418 140.136 277.674C140.46 276.918 140.922 276.33 141.522 275.91C142.134 275.478 142.86 275.262 143.7 275.262C144.54 275.262 145.218 275.46 145.734 275.856C146.25 276.252 146.64 276.726 146.904 277.278H147.03V275.514H148.596V285H147.03V283.056H146.904C146.616 283.62 146.208 284.106 145.68 284.514C145.152 284.922 144.474 285.126 143.646 285.126ZM144.132 283.794C145.056 283.794 145.764 283.452 146.256 282.768C146.748 282.072 146.994 281.214 146.994 280.194C146.994 279.174 146.748 278.322 146.256 277.638C145.764 276.942 145.056 276.594 144.132 276.594C143.184 276.594 142.464 276.936 141.972 277.62C141.492 278.304 141.252 279.156 141.252 280.176C141.252 281.208 141.492 282.072 141.972 282.768C142.464 283.452 143.184 283.794 144.132 283.794ZM151.262 275.514H152.81V277.026H152.918C153.074 276.606 153.35 276.252 153.746 275.964C154.154 275.664 154.664 275.514 155.276 275.514C155.468 275.514 155.618 275.526 155.726 275.55C155.846 275.562 155.978 275.592 156.122 275.64L156.068 277.152C155.876 277.092 155.708 277.05 155.564 277.026C155.432 277.002 155.258 276.99 155.042 276.99C153.554 276.99 152.81 277.872 152.81 279.636V285H151.262V275.514ZM161.553 285.126C160.581 285.126 159.759 284.892 159.087 284.424C158.427 283.956 157.935 283.344 157.611 282.588C157.287 281.832 157.125 281.034 157.125 280.194C157.125 279.342 157.287 278.544 157.611 277.8C157.935 277.044 158.433 276.432 159.105 275.964C159.777 275.496 160.599 275.262 161.571 275.262C162.843 275.262 163.857 275.688 164.613 276.54C165.381 277.392 165.765 278.616 165.765 280.212V280.644H158.673V280.77C158.673 281.298 158.793 281.796 159.033 282.264C159.273 282.732 159.609 283.11 160.041 283.398C160.473 283.686 160.971 283.83 161.535 283.83C162.147 283.83 162.675 283.674 163.119 283.362C163.563 283.05 163.893 282.63 164.109 282.102H165.639C165.387 282.966 164.913 283.686 164.217 284.262C163.533 284.838 162.645 285.126 161.553 285.126ZM164.235 279.546C164.187 278.466 163.923 277.686 163.443 277.206C162.963 276.726 162.333 276.486 161.553 276.486C160.701 276.486 160.023 276.768 159.519 277.332C159.015 277.896 158.745 278.634 158.709 279.546H164.235ZM176.214 285.126C175.254 285.126 174.438 284.898 173.766 284.442C173.106 283.974 172.608 283.368 172.272 282.624C171.936 281.868 171.768 281.058 171.768 280.194C171.768 279.33 171.936 278.526 172.272 277.782C172.608 277.026 173.106 276.42 173.766 275.964C174.438 275.496 175.254 275.262 176.214 275.262C177.174 275.262 177.984 275.496 178.644 275.964C179.316 276.42 179.814 277.026 180.138 277.782C180.474 278.538 180.642 279.342 180.642 280.194C180.642 281.046 180.474 281.85 180.138 282.606C179.802 283.362 179.298 283.974 178.626 284.442C177.966 284.898 177.162 285.126 176.214 285.126ZM176.214 283.794C176.802 283.794 177.312 283.632 177.744 283.308C178.188 282.984 178.524 282.552 178.752 282.012C178.98 281.46 179.094 280.848 179.094 280.176C179.094 279.144 178.836 278.286 178.32 277.602C177.804 276.918 177.102 276.576 176.214 276.576C175.614 276.576 175.092 276.738 174.648 277.062C174.216 277.386 173.886 277.824 173.658 278.376C173.43 278.916 173.316 279.516 173.316 280.176C173.316 281.208 173.574 282.072 174.09 282.768C174.606 283.452 175.314 283.794 176.214 283.794ZM186.613 272.85C186.193 272.85 185.881 272.934 185.677 273.102C185.485 273.258 185.365 273.45 185.317 273.678C185.281 273.894 185.263 274.176 185.263 274.524V275.514H187.513V276.756H185.263V285H183.715L183.697 276.756H182.401V275.514H183.697V274.272C183.697 272.568 184.543 271.716 186.235 271.716C186.475 271.716 186.715 271.734 186.955 271.77C187.207 271.794 187.393 271.824 187.513 271.86V272.94C187.249 272.88 186.949 272.85 186.613 272.85ZM197.008 285.126C196.24 285.126 195.574 284.976 195.01 284.676C194.446 284.364 194.014 283.968 193.714 283.488C193.426 283.008 193.282 282.504 193.282 281.976V281.886H194.83V281.958C194.83 282.258 194.914 282.558 195.082 282.858C195.25 283.146 195.502 283.386 195.838 283.578C196.174 283.758 196.582 283.848 197.062 283.848C197.638 283.848 198.112 283.71 198.484 283.434C198.868 283.146 199.06 282.756 199.06 282.264C199.06 281.856 198.91 281.532 198.61 281.292C198.322 281.052 197.956 280.896 197.512 280.824L196.27 280.644C195.49 280.524 194.836 280.26 194.308 279.852C193.78 279.432 193.516 278.826 193.516 278.034C193.516 277.158 193.828 276.48 194.452 276C195.088 275.508 195.898 275.262 196.882 275.262C197.614 275.262 198.238 275.4 198.754 275.676C199.282 275.94 199.684 276.294 199.96 276.738C200.236 277.17 200.374 277.644 200.374 278.16V278.232H198.826V278.196C198.826 277.956 198.76 277.704 198.628 277.44C198.508 277.176 198.298 276.948 197.998 276.756C197.698 276.564 197.314 276.468 196.846 276.468C196.27 276.468 195.808 276.612 195.46 276.9C195.112 277.176 194.938 277.542 194.938 277.998C194.938 278.37 195.076 278.676 195.352 278.916C195.628 279.156 195.976 279.312 196.396 279.384L197.746 279.6C198.538 279.732 199.204 280.008 199.744 280.428C200.284 280.836 200.554 281.442 200.554 282.246C200.554 282.822 200.398 283.326 200.086 283.758C199.786 284.19 199.366 284.526 198.826 284.766C198.286 285.006 197.68 285.126 197.008 285.126ZM205.856 286.314C205.664 286.77 205.478 287.142 205.298 287.43C205.13 287.73 204.848 288.012 204.452 288.276C204.056 288.54 203.54 288.672 202.904 288.672C202.568 288.672 202.208 288.624 201.824 288.528V287.376C202.112 287.424 202.364 287.448 202.58 287.448C202.976 287.448 203.294 287.37 203.534 287.214C203.774 287.07 203.96 286.878 204.092 286.638C204.236 286.398 204.404 286.05 204.596 285.594L205.028 284.532L201.518 275.514H203.138L205.784 282.822H205.892L208.664 275.514H210.284L205.856 286.314ZM215.254 285.126C214.486 285.126 213.82 284.976 213.256 284.676C212.692 284.364 212.26 283.968 211.96 283.488C211.672 283.008 211.528 282.504 211.528 281.976V281.886H213.076V281.958C213.076 282.258 213.16 282.558 213.328 282.858C213.496 283.146 213.748 283.386 214.084 283.578C214.42 283.758 214.828 283.848 215.308 283.848C215.884 283.848 216.358 283.71 216.73 283.434C217.114 283.146 217.306 282.756 217.306 282.264C217.306 281.856 217.156 281.532 216.856 281.292C216.568 281.052 216.202 280.896 215.758 280.824L214.516 280.644C213.736 280.524 213.082 280.26 212.554 279.852C212.026 279.432 211.762 278.826 211.762 278.034C211.762 277.158 212.074 276.48 212.698 276C213.334 275.508 214.144 275.262 215.128 275.262C215.86 275.262 216.484 275.4 217 275.676C217.528 275.94 217.93 276.294 218.206 276.738C218.482 277.17 218.62 277.644 218.62 278.16V278.232H217.072V278.196C217.072 277.956 217.006 277.704 216.874 277.44C216.754 277.176 216.544 276.948 216.244 276.756C215.944 276.564 215.56 276.468 215.092 276.468C214.516 276.468 214.054 276.612 213.706 276.9C213.358 277.176 213.184 277.542 213.184 277.998C213.184 278.37 213.322 278.676 213.598 278.916C213.874 279.156 214.222 279.312 214.642 279.384L215.992 279.6C216.784 279.732 217.45 280.008 217.99 280.428C218.53 280.836 218.8 281.442 218.8 282.246C218.8 282.822 218.644 283.326 218.332 283.758C218.032 284.19 217.612 284.526 217.072 284.766C216.532 285.006 215.926 285.126 215.254 285.126ZM223.482 276.756V282.264C223.482 282.708 223.5 283.038 223.536 283.254C223.584 283.458 223.698 283.62 223.878 283.74C224.07 283.86 224.376 283.92 224.796 283.92C225.084 283.92 225.396 283.878 225.732 283.794V284.91C225.648 284.946 225.462 284.982 225.174 285.018C224.898 285.054 224.61 285.072 224.31 285.072C223.614 285.072 223.092 284.976 222.744 284.784C222.408 284.58 222.186 284.31 222.078 283.974C221.982 283.626 221.934 283.17 221.934 282.606V276.756H220.17V275.514H221.934V272.4H223.482V275.514H225.732V276.756H223.482ZM232.006 285.126C231.034 285.126 230.212 284.892 229.54 284.424C228.88 283.956 228.388 283.344 228.064 282.588C227.74 281.832 227.578 281.034 227.578 280.194C227.578 279.342 227.74 278.544 228.064 277.8C228.388 277.044 228.886 276.432 229.558 275.964C230.23 275.496 231.052 275.262 232.024 275.262C233.296 275.262 234.31 275.688 235.066 276.54C235.834 277.392 236.218 278.616 236.218 280.212V280.644H229.126V280.77C229.126 281.298 229.246 281.796 229.486 282.264C229.726 282.732 230.062 283.11 230.494 283.398C230.926 283.686 231.424 283.83 231.988 283.83C232.6 283.83 233.128 283.674 233.572 283.362C234.016 283.05 234.346 282.63 234.562 282.102H236.092C235.84 282.966 235.366 283.686 234.67 284.262C233.986 284.838 233.098 285.126 232.006 285.126ZM234.688 279.546C234.64 278.466 234.376 277.686 233.896 277.206C233.416 276.726 232.786 276.486 232.006 276.486C231.154 276.486 230.476 276.768 229.972 277.332C229.468 277.896 229.198 278.634 229.162 279.546H234.688ZM238.504 275.514H240.034V277.26H240.178C240.202 277.14 240.322 276.924 240.538 276.612C240.754 276.288 241.084 275.982 241.528 275.694C241.972 275.406 242.524 275.262 243.184 275.262C243.88 275.262 244.456 275.424 244.912 275.748C245.38 276.072 245.728 276.42 245.956 276.792C246.184 277.164 246.298 277.398 246.298 277.494H246.442C246.61 277.074 246.94 276.6 247.432 276.072C247.936 275.532 248.704 275.262 249.736 275.262C250.504 275.262 251.146 275.46 251.662 275.856C252.178 276.24 252.556 276.738 252.796 277.35C253.048 277.962 253.174 278.616 253.174 279.312V285H251.644V279.456C251.644 278.544 251.404 277.854 250.924 277.386C250.456 276.918 249.874 276.684 249.178 276.684C248.458 276.684 247.846 276.93 247.342 277.422C246.85 277.902 246.604 278.58 246.604 279.456V285H245.074V279.456C245.074 278.544 244.834 277.854 244.354 277.386C243.886 276.918 243.304 276.684 242.608 276.684C241.888 276.684 241.276 276.93 240.772 277.422C240.28 277.902 240.034 278.58 240.034 279.456V285H238.504V275.514ZM258.988 285.126C258.22 285.126 257.554 284.976 256.99 284.676C256.426 284.364 255.994 283.968 255.694 283.488C255.406 283.008 255.262 282.504 255.262 281.976V281.886H256.81V281.958C256.81 282.258 256.894 282.558 257.062 282.858C257.23 283.146 257.482 283.386 257.818 283.578C258.154 283.758 258.562 283.848 259.042 283.848C259.618 283.848 260.092 283.71 260.464 283.434C260.848 283.146 261.04 282.756 261.04 282.264C261.04 281.856 260.89 281.532 260.59 281.292C260.302 281.052 259.936 280.896 259.492 280.824L258.25 280.644C257.47 280.524 256.816 280.26 256.288 279.852C255.76 279.432 255.496 278.826 255.496 278.034C255.496 277.158 255.808 276.48 256.432 276C257.068 275.508 257.878 275.262 258.862 275.262C259.594 275.262 260.218 275.4 260.734 275.676C261.262 275.94 261.664 276.294 261.94 276.738C262.216 277.17 262.354 277.644 262.354 278.16V278.232H260.806V278.196C260.806 277.956 260.74 277.704 260.608 277.44C260.488 277.176 260.278 276.948 259.978 276.756C259.678 276.564 259.294 276.468 258.826 276.468C258.25 276.468 257.788 276.612 257.44 276.9C257.092 277.176 256.918 277.542 256.918 277.998C256.918 278.37 257.056 278.676 257.332 278.916C257.608 279.156 257.956 279.312 258.376 279.384L259.726 279.6C260.518 279.732 261.184 280.008 261.724 280.428C262.264 280.836 262.534 281.442 262.534 282.246C262.534 282.822 262.378 283.326 262.066 283.758C261.766 284.19 261.346 284.526 260.806 284.766C260.266 285.006 259.66 285.126 258.988 285.126Z" fill="#6E534E"/>
</g>
<defs>
<filter id="filter0_d_16_4402" x="141.5" y="186.5" width="48" height="48" filterUnits="userSpaceOnUse" color-interpolation-filters="sRGB">
<feFlood flood-opacity="0" result="BackgroundImageFix"/>
<feColorMatrix in="SourceAlpha" type="matrix" values="0 0 0 0 0 0 0 0 0 0 0 0 0 0 0 0 0 0 127 0" result="hardAlpha"/>
<feOffset/>
<feGaussianBlur stdDeviation="1.75"/>
<feComposite in2="hardAlpha" operator="out"/>
<feColorMatrix type="matrix" values="0 0 0 0 0 0 0 0 0 0 0 0 0 0 0 0 0 0 0.66 0"/>
<feBlend mode="normal" in2="BackgroundImageFix" result="effect1_dropShadow_16_4402"/>
<feBlend mode="normal" in="SourceGraphic" in2="effect1_dropShadow_16_4402" result="shape"/>
</filter>
<filter id="filter1_ddddd_16_4402" x="-63" y="141" width="458" height="266" filterUnits="userSpaceOnUse" color-interpolation-filters="sRGB">
<feFlood flood-opacity="0" result="BackgroundImageFix"/>
<feColorMatrix in="SourceAlpha" type="matrix" values="0 0 0 0 0 0 0 0 0 0 0 0 0 0 0 0 0 0 127 0" result="hardAlpha"/>
<feOffset dy="-0.171058"/>
<feGaussianBlur stdDeviation="1.87202"/>
<feColorMatrix type="matrix" values="0 0 0 0 0.414372 0 0 0 0 0.213789 0 0 0 0 0.172493 0 0 0 1 0"/>
<feBlend mode="normal" in2="BackgroundImageFix" result="effect1_dropShadow_16_4402"/>
<feColorMatrix in="SourceAlpha" type="matrix" values="0 0 0 0 0 0 0 0 0 0 0 0 0 0 0 0 0 0 127 0" result="hardAlpha"/>
<feOffset dy="-0.586256"/>
<feGaussianBlur stdDeviation="4.73447"/>
<feColorMatrix type="matrix" values="0 0 0 0 0.605859 0 0 0 0 0.372483 0 0 0 0 0.325807 0 0 0 1 0"/>
<feBlend mode="normal" in2="effect1_dropShadow_16_4402" result="effect2_dropShadow_16_4402"/>
<feColorMatrix in="SourceAlpha" type="matrix" values="0 0 0 0 0 0 0 0 0 0 0 0 0 0 0 0 0 0 127 0" result="hardAlpha"/>
<feOffset dy="-1.59285"/>
<feGaussianBlur stdDeviation="9.65788"/>
<feColorMatrix type="matrix" values="0 0 0 0 0.638135 0 0 0 0 0.638135 0 0 0 0 0.638135 0 0 0 0.294456 0"/>
<feBlend mode="normal" in2="effect2_dropShadow_16_4402" result="effect3_dropShadow_16_4402"/>
<feColorMatrix in="SourceAlpha" type="matrix" values="0 0 0 0 0 0 0 0 0 0 0 0 0 0 0 0 0 0 127 0" result="hardAlpha"/>
<feOffset dy="-3.12268"/>
<feGaussianBlur stdDeviation="19.8934"/>
<feColorMatrix type="matrix" values="0 0 0 0 0.804362 0 0 0 0 0.580164 0 0 0 0 0.535914 0 0 0 1 0"/>
<feBlend mode="normal" in2="effect3_dropShadow_16_4402" result="effect4_dropShadow_16_4402"/>
<feColorMatrix in="SourceAlpha" type="matrix" values="0 0 0 0 0 0 0 0 0 0 0 0 0 0 0 0 0 0 127 0" result="hardAlpha"/>
<feOffset dy="-4"/>
<feGaussianBlur stdDeviation="54.5"/>
<feColorMatrix type="matrix" values="0 0 0 0 1 0 0 0 0 1 0 0 0 0 1 0 0 0 0.55 0"/>
<feBlend mode="normal" in2="effect4_dropShadow_16_4402" result="effect5_dropShadow_16_4402"/>
<feBlend mode="normal" in="SourceGraphic" in2="effect5_dropShadow_16_4402" result="shape"/>
</filter>
<linearGradient id="paint0_linear_16_4402" x1="166" y1="254" x2="166" y2="302" gradientUnits="userSpaceOnUse">
<stop stop-color="white"/>
<stop offset="0.487005" stop-color="#E0CFCC"/>
<stop offset="1" stop-color="#D19F97"/>
</linearGradient>
<clipPath id="clip0_16_4402">
<rect width="331" height="354" rx="30" fill="white"/>
</clipPath>
</defs>
</svg>
